<?xml version="1.0" encoding="utf-8"?>
<!-- Generator: Adobe Illustrator 24.0.1, SVG Export Plug-In . SVG Version: 6.00 Build 0)  -->
<svg version="1.1" id="Layer_1" xmlns="http://www.w3.org/2000/svg" xmlns:xlink="http://www.w3.org/1999/xlink" x="0px" y="0px"
	 viewBox="0 0 798 199.52" style="enable-background:new 0 0 798 199.52;" xml:space="preserve">
<style type="text/css">
	.st0{fill:url(#SVGID_1_);}
	.st1{fill:url(#SVGID_2_);}
	.st2{fill:url(#SVGID_6_);}
	.st3{fill:#FFFFFF;}
</style>
<g>
	<linearGradient id="SVGID_1_" gradientUnits="userSpaceOnUse" x1="76.8429" y1="136.1155" x2="44.4158" y2="97.4703">
		<stop  offset="0" style="stop-color:#CE5DCB"/>
		<stop  offset="0.2095" style="stop-color:#C558CC"/>
		<stop  offset="0.5525" style="stop-color:#AC4ACF"/>
		<stop  offset="0.9845" style="stop-color:#8534D4"/>
		<stop  offset="1" style="stop-color:#8333D4"/>
	</linearGradient>
	<path class="st0" d="M13.53,134.17c18.04,18.05,47.3,18.05,65.35,0l1.73-1.73c9.02-9.02-9.02-56.32,0-65.35L13.53,134.17z"/>
	<linearGradient id="SVGID_2_" gradientUnits="userSpaceOnUse" x1="78.0192" y1="92.1273" x2="147.6974" y2="92.1273">
		<stop  offset="0.0237" style="stop-color:#FF5667"/>
		<stop  offset="0.6592" style="stop-color:#FC8B82"/>
		<stop  offset="1" style="stop-color:#FBA28E"/>
	</linearGradient>
	<path class="st1" d="M82.35,65.36l-1.73,1.73c-9.02,9.02,9.02,56.32,0,65.34l67.07-67.07c-9.02-9.02-20.85-13.53-32.67-13.53
		C103.2,51.82,91.37,56.33,82.35,65.36"/>
	<g>
		<defs>
			<path id="SVGID_3_" d="M13.53,68.83c-18.05,18.04-18.05,47.3,0,65.34l68.83-68.83c18.04-18.05,18.04-47.3,0-65.34L13.53,68.83z"
				/>
		</defs>
		<linearGradient id="SVGID_4_" gradientUnits="userSpaceOnUse" x1="-1.818989e-12" y1="67.0864" x2="95.8975" y2="67.0864">
			<stop  offset="0" style="stop-color:#00B874"/>
			<stop  offset="0.5126" style="stop-color:#29D3A2"/>
			<stop  offset="0.6817" style="stop-color:#53DFB6"/>
			<stop  offset="1" style="stop-color:#9FF4D9"/>
		</linearGradient>
		<use xlink:href="#SVGID_3_"  style="overflow:visible;fill:url(#SVGID_4_);"/>
		<clipPath id="SVGID_5_">
			<use xlink:href="#SVGID_3_"  style="overflow:visible;"/>
		</clipPath>
	</g>
	<linearGradient id="SVGID_6_" gradientUnits="userSpaceOnUse" x1="65.3463" y1="132.4321" x2="161.2429" y2="132.4321">
		<stop  offset="0" style="stop-color:#FCD77E"/>
		<stop  offset="0.5241" style="stop-color:#FEA500"/>
		<stop  offset="1" style="stop-color:#FF5B00"/>
	</linearGradient>
	<path class="st2" d="M78.88,134.17c-18.04,18.05-18.04,47.3,0,65.35l68.83-68.83c18.05-18.04,18.05-47.3,0-65.34L78.88,134.17z"/>
	<g>
		<path class="st3" d="M415.45,100.12c-1.39-4.76-3.46-9.3-6.16-13.49c-4.62-7.17-11.06-13.15-18.62-17.29
			c-11.93-6.51-26.17-8.04-39.28-4.22c-13.23,3.86-24.16,12.66-30.78,24.78c-6.58,12.06-8.1,25.96-4.27,39.16l0.04,0.13
			c0.88,2.94,2.29,6.7,2.32,6.76c4.39,10.28,11.74,18.12,22.47,23.99c7.58,4.15,16.11,6.34,24.66,6.34c4.91,0,9.83-0.71,14.6-2.12
			c10.09-2.95,18.89-8.77,25.53-16.94l0.42-0.52c1.69-2.14,3.23-4.43,4.56-6.81c2.37-4.23,0.85-9.6-3.38-11.97
			c-1.31-0.73-2.79-1.12-4.29-1.12c-3.19,0-6.13,1.72-7.68,4.5c-2.17,3.88-5.04,7.25-8.54,10.02c-0.3,0.24-0.59,0.5-0.74,0.68
			c-3.22,2.4-6.86,4.2-10.8,5.36c-8.62,2.53-18.02,1.52-25.94-2.8c-5.23-2.85-9.6-7.08-12.7-12.26l72.66-21.32
			C414.14,109.62,416.81,104.75,415.45,100.12z M365.98,80.51c5.62,0,11.25,1.45,16.29,4.19c4.97,2.71,9.22,6.66,12.3,11.41
			c0.17,0.27,0.35,0.55,0.52,0.83l-63.26,18.56c-0.16-5.97,1.28-11.9,4.18-17.22c4.36-7.99,11.57-13.8,20.31-16.36
			C359.49,80.98,362.75,80.51,365.98,80.51z M405.39,146.51L405.39,146.51L405.39,146.51L405.39,146.51z"/>
		<path class="st3" d="M508.71,149.58h-48.07l53.75-78.97c1.02-1.49,1.12-3.41,0.28-5.01c-0.84-1.6-2.49-2.59-4.3-2.59h-68.34
			c-4.54,0-8.23,3.69-8.23,8.23c0,4.54,3.69,8.23,8.23,8.23h45.8l-53.74,78.97c-1.02,1.5-1.12,3.42-0.28,5.01
			c0.84,1.59,2.49,2.58,4.3,2.58h70.59c4.54,0,8.23-3.69,8.23-8.23C516.93,153.28,513.24,149.58,508.71,149.58z"/>
		<path class="st3" d="M615.2,149.58h-48.06l53.75-78.97c1.02-1.49,1.12-3.41,0.28-5.01c-0.84-1.59-2.49-2.58-4.3-2.58h-68.34
			c-4.54,0-8.23,3.69-8.23,8.23c0,4.54,3.69,8.23,8.23,8.23h45.8l-53.74,78.97c-1.01,1.5-1.12,3.41-0.28,5.01
			c0.85,1.59,2.49,2.58,4.3,2.58h70.59c4.54,0,8.23-3.69,8.23-8.23C623.43,153.28,619.74,149.58,615.2,149.58z"/>
		<path class="st3" d="M662.66,18.47c-4.54,0-8.23,3.69-8.23,8.23v131.41c0,4.53,3.69,8.23,8.23,8.23c4.54,0,8.23-3.7,8.23-8.23
			V26.7C670.89,22.16,667.2,18.47,662.66,18.47z"/>
		<path class="st3" d="M797.65,100.12c-1.38-4.76-3.46-9.3-6.16-13.49c-4.63-7.17-11.06-13.15-18.62-17.29
			c-11.94-6.51-26.17-8.04-39.28-4.22c-13.23,3.86-24.17,12.66-30.78,24.78c-6.59,12.06-8.1,25.96-4.28,39.16l0.04,0.14
			c0.88,2.93,2.29,6.69,2.32,6.76c4.39,10.28,11.74,18.12,22.47,23.99c7.58,4.15,16.11,6.34,24.66,6.34c4.91,0,9.82-0.71,14.6-2.12
			c10.09-2.95,18.89-8.77,25.53-16.93l0.43-0.55c1.7-2.15,3.23-4.44,4.55-6.8c2.37-4.23,0.85-9.6-3.38-11.97
			c-1.31-0.73-2.79-1.12-4.29-1.12c-3.18,0-6.13,1.72-7.68,4.5c-2.17,3.88-5.05,7.26-8.54,10.02c-0.31,0.24-0.59,0.5-0.75,0.68
			c-3.22,2.4-6.86,4.2-10.8,5.36c-8.61,2.53-18.01,1.52-25.94-2.8c-5.23-2.85-9.6-7.08-12.71-12.26l72.66-21.32
			C796.34,109.62,799,104.75,797.65,100.12z M748.17,80.51c5.62,0,11.25,1.45,16.29,4.19c4.97,2.71,9.22,6.66,12.3,11.41
			c0.17,0.27,0.35,0.55,0.52,0.83l-63.26,18.56c-0.16-5.98,1.28-11.91,4.18-17.22c4.36-7.99,11.57-13.8,20.31-16.36
			C741.69,80.98,744.94,80.51,748.17,80.51z"/>
		<path class="st3" d="M288.77,120.28c-2.44-3.57-5.96-6.55-10.47-8.84c-7.36-3.75-16.92-5.47-26.07-6.9l-1.45-0.22
			c-6.43-1-13.08-2.04-17.35-4.2c-3.23-1.64-4.38-3.48-4.38-7.07c0-6.95,7.56-12.19,17.6-12.19c11.97,0,18.66,3.5,26.15,8.07
			c1.39,0.85,2.99,1.3,4.61,1.3c3.12,0,5.95-1.58,7.57-4.24c1.23-2.02,1.61-4.4,1.05-6.7c-0.56-2.3-1.98-4.25-4-5.48
			c-4.15-2.53-8.68-5.18-14.42-7.23c-6.45-2.31-13.31-3.43-20.97-3.43c-9.24,0-17.88,2.8-24.33,7.91
			c-7.09,5.6-10.99,13.42-10.99,22.01c0,10.3,4.88,18.22,14.11,22.89c6.78,3.43,14.84,4.68,22.63,5.89l1.43,0.22
			c19.98,3.13,25.75,5.95,25.75,12.56c0,8.19-8.2,13.55-20.89,13.66l-0.46,0c-13.61,0-21.25-5.23-25.35-8.04
			c-0.68-0.46-1.26-0.87-1.84-1.23c-1.41-0.88-3.03-1.34-4.68-1.34c-3.08,0-5.9,1.56-7.53,4.17c-2.59,4.15-1.32,9.63,2.83,12.21
			c0.23,0.14,0.58,0.38,0.97,0.65l0.24,0.16c4.87,3.33,16.26,11.14,35.37,11.14l0.61,0c11.01-0.1,20.48-3.06,27.37-8.58
			c7.15-5.72,11.09-13.82,11.09-22.81C292.97,129.17,291.55,124.35,288.77,120.28z"/>
	</g>
</g>
</svg>
