<svg clip-rule="evenodd" fill-rule="evenodd" viewBox="0 0 154 189" xmlns="http://www.w3.org/2000/svg"><path d="m0 40.253c0 1.408-1.141 2.551-2.551 2.551h-31.748c-1.41 0-2.551-1.143-2.551-2.551v-40.252c0-1.41 1.141-2.552 2.551-2.552h31.748c1.41 0 2.551 1.142 2.551 2.552z" fill="#fff" fill-rule="nonzero" transform="matrix(4.16667 0 0 4.16667 153.54819756 10.62839523)"/><path d="m0-27.357c0-1.565-1.27-2.834-2.834-2.834h-25.514c-1.564 0-2.834 1.269-2.834 2.834v30.191h31.182z" fill="#231f20" fill-rule="nonzero" transform="matrix(4.16667 0 0 4.16667 141.73985478 137.61183015)"/><path d="m0 34.014c0 1.566-1.27 2.836-2.834 2.836h-25.514c-1.564 0-2.834-1.27-2.834-2.836v-34.016c0-1.565 1.27-2.834 2.834-2.834h25.514c1.564 0 2.834 1.269 2.834 2.834z" fill="none" stroke="#231f20" stroke-width=".75" transform="matrix(4.16667 0 0 4.16667 141.73985478 23.62840563)"/><path d="m0-4.398c-.566-.381-1.236-.599-1.928-.599-1.58 0-2.033 1.268-2.033 2.664 0 1.596.775 2.887 2.496 2.887.899 0 1.717-.335 2.492-.75l-.578 1.686c-.75.207-1.521.277-2.297.277-1.175 0-2.17-.199-3.091-.992-.891-.752-1.364-1.838-1.364-3.014 0-1.063.449-2.181 1.258-2.9.879-.748 2.09-1.026 3.221-1.026l1.744.151z" fill="#fff" fill-rule="nonzero" transform="matrix(4.16667 0 0 4.16667 44.21061009 41.77842015)"/><path d="m0 5.092c.381.154.809.174 1.213.174.644 0 1.246-.104 1.683-.635h.059l-.463 1.741h-5.111v-.034c.564-.355.484-1.004.484-1.601v-4.321c0-.599.08-1.257-.484-1.601v-.036h4.039c.174 0 .359 0 .484-.059h.035v1.675h-.035c-.31-.544-.968-.485-1.535-.485h-.369v1.869h1.072c.164 0 .324-.009.428-.056h.061v1.615h-.061c-.162-.463-.691-.416-1.119-.416h-.381z" fill="#fff" fill-rule="nonzero" transform="matrix(4.16667 0 0 4.16667 60.32312298 21.94923762)"/><path d="m0-5.424c.23 0 .475.022.67.16.312.221.463.611.463.985 0 .726-.533 1.335-1.246 1.462v-2.607zm-.113 3.222 1.338 2.514c.402.715.773.821 1.546.778l1.594-.106c-.463-.381-.799-.867-1.109-1.387l-1.373-2.297c.762-.326 1.373-.956 1.373-1.824 0-.775-.348-1.384-1.027-1.756-.52-.277-.981-.264-1.545-.264h-3.418v.036c.564.356.486 1.013.486 1.613v4.295c0 .602.078 1.26-.486 1.615v.035h3.105v-.035c-.568-.355-.484-1.013-.484-1.615z" fill="#fff" fill-rule="nonzero" transform="matrix(4.16667 0 0 4.16667 84.85230927 44.12842203)"/><path d="m0-.637c0-1.188.6-2.493 1.963-2.493 1.582 0 2.1 1.881 2.1 3.199 0 .565-.081 1.152-.428 1.615-.369.496-.922.808-1.535.808-.657 0-1.237-.44-1.557-.995-.326-.576-.543-1.465-.543-2.134m-2.242.311c0 2.437 1.838 3.973 4.205 3.973 2.344 0 4.34-1.467 4.34-3.982 0-2.54-1.778-3.949-4.203-3.949-2.342 0-4.342 1.501-4.342 3.958" fill="#fff" fill-rule="nonzero" transform="matrix(4.16667 0 0 4.16667 109.79816256 33.94091388)"/><path d="m0 9.295h9.258v3.936h-16.305v-3.936l8.932-9.296h-8.584v-3.935h15.609v3.935z" fill="none" stroke="#fff" stroke-width="4.06" transform="matrix(4.16667 0 0 4.16667 72.62313282 79.82845059)"/><g transform="matrix(4.16667 0 0 4.16667 72.62313282 79.82845059)"><path d="m0 9.295h9.258v3.936h-16.305v-3.936l8.932-9.296h-8.584v-3.935h15.609v3.935z" fill="none" stroke="#231f20" stroke-width="2.03"/><path d="m0 9.295h9.258v3.936h-16.305v-3.936l8.932-9.296h-8.584v-3.935h15.609v3.935z" fill="#231f20" fill-rule="nonzero"/></g><g fill-rule="nonzero"><path d="m0 9.295h9.258v3.936h-16.307v-3.936l8.932-9.296h-8.582v-3.935h15.607v3.935z" fill="#fff" transform="matrix(4.16667 0 0 4.16667 71.21479836 79.82845059)"/><path d="m0-4.188v4.188h-.402v-3.614h-.512v-.574z" fill="#231f20" transform="matrix(4.16667 0 0 4.16667 22.81892631 171.48685725)"/><path d="m0 .361c.408 0 .717.079.717.68 0 .521-.131.713-.717.713s-.709-.208-.709-.686c0-.516.156-.707.709-.707m-.68-.271c-.08.037-.187.084-.281.297-.117.271-.137.575-.137.749 0 1.032.563 1.181 1.102 1.181.623 0 1.101-.208 1.101-1.196 0-.213-.027-.484-.136-.734-.098-.217-.209-.265-.28-.297.319-.181.36-.712.36-.91 0-1.105-.697-1.136-1.045-1.136-.385 0-1.041.058-1.041 1.131 0 .197.037.734.357.915m.684-1.494c.449 0 .652.138.652.584 0 .474-.123.67-.633.67-.375 0-.671-.052-.671-.627 0-.409.099-.627.652-.627" fill="#231f20" transform="matrix(4.16667 0 0 4.16667 32.02310034 162.01601634)"/><path d="m0 2.019c.85-.239 1.316-.601 1.609-.829v-1.249h-1.609v-.542h1.609v-.882h.366v.882h1.138v.542h-1.138v.909c.316-.335.439-.574.519-.728l.291.356c-.133.228-.365.633-.81 1.02v1.584c0 .261-.114.42-.307.42h-.664l-.053-.552h.549c.107 0 .109-.048.109-.165v-.999c-.648.467-1.181.67-1.478.775z" fill="#231f20" transform="matrix(4.16667 0 0 4.16667 37.83977166 158.89101384)"/><path d="m0 4.028c.445-.218 1.195-.686 1.584-.978l-.07-.504c-.362.249-.899.557-.899.557v-3.534h-.365v3.73c-.166.091-.223.113-.314.155zm2.803-4.422h-.375v.914c0 1.319-.098 2.875-1.461 3.391l.187.548c.229-.107.748-.357 1.153-1.164.214.404.382.733.511 1.147l.299-.483c-.174-.399-.314-.638-.615-1.132.197-.601.301-1.499.301-2.27zm-1.842.489c.301.542.422.802.639 1.44l.322-.356c-.24-.627-.393-.957-.69-1.408z" fill="#231f20" transform="matrix(4.16667 0 0 4.16667 52.03144968 154.90767732)"/><path d="m0-4.805v1.604h1.256v.57h-1.256v2.072h1.471v.559h-3.168v-.559h1.33v-4.246z" fill="#231f20" transform="matrix(4.16667 0 0 4.16667 72.69396621 172.73269158)"/><path d="m0 .557c0 .563.137.877.309.877.193 0 .296-.361.334-.488.191-.676.252-1.648.279-2.243-.801.223-.922 1.386-.922 1.854m.969 1.318c.4-.026 1.215-.085 1.215-1.732 0-.622-.174-1.399-.881-1.467-.061.999-.198 3.343-1.008 3.343-.44 0-.66-.797-.66-1.541 0-1.281.57-2.36 1.564-2.36 1.108 0 1.403 1.207 1.403 2.084 0 2.109-1.188 2.21-1.538 2.237z" fill="#231f20" transform="matrix(4.16667 0 0 4.16667 81.72730677 162.28268322)"/><path d="m0-.016c-.057.366-.207 1.345-.525 1.345-.11 0-.204-.122-.204-.394 0-.18.063-.882.729-.951m1.219-1.388c-.006.272-.02.617-.08 1.138-.321-.148-.494-.196-.709-.233.023-.203.06-.538.08-.851.047-.712.051-.792.056-.877h-1.433v.553h1.019c-.023.494-.035.733-.084 1.158-.726.037-1.146.729-1.146 1.425 0 .388.144.962.547.962.562 0 .797-1.169.894-1.834.311.058.61.208.7.25-.098.579-.206 1.148-.825 1.462l.225.462c.615-.356.82-1.004.951-1.706.164.117.25.191.385.303l.127-.591c-.1-.089-.137-.122-.426-.296.055-.458.082-.788.111-1.26z" fill="#231f20" transform="matrix(4.16667 0 0 4.16667 98.79398709 163.29518403)"/><path d="m0-.456c.168.414.322.946.422 1.408l.342-.265c-.201-.814-.344-1.18-.446-1.414zm-1.479-.149c.12.149.34.415.629.924-.265.777-.609 1.186-.75 1.356l.241.489c.234-.303.533-.728.757-1.382.188.377.295.659.366.845l.281-.355c-.125-.378-.328-.766-.483-1.042.17-.697.237-1.287.272-1.6h.193v-.542h-.582v-.809h-.355v.809h-.629v.542h1.014c-.02.26-.053.648-.17 1.164-.268-.431-.436-.648-.53-.771zm2.417-2.116v.984h-.811v.569h.811v2.758c0 .111-.006.128-.114.128h-.519l.088.547h.507c.258 0 .397-.075.397-.484v-2.949h.277v-.569h-.277v-.984z" fill="#231f20" transform="matrix(4.16667 0 0 4.16667 114.31483284 164.02435128)"/><path d="m454.256 534.339h-.877v-.494h.877zm-2.002-.914c.146-.133.252-.244.322-.335h.967c-.063.117-.131.218-.217.335zm-.463 3.103c.66-.217 1.059-.499 1.283-.707.02.07.03.117.043.187-.207.191-.685.542-1.476.765l.111.468c.732-.271 1.186-.59 1.416-.803.006.314-.01.399-.205.399h-.293l.076.526h.305c.181 0 .449 0 .449-.776 0-.101-.01-.786-.242-1.232-.063-.118-.11-.192-.141-.235.145-.1.262-.218.403-.356.168 1.632.65 2.11 1.111 2.466l.215-.484c-.114-.09-.412-.324-.647-.69.215-.192.371-.388.535-.612l-.273-.377c-.131.223-.295.399-.455.569-.047-.138-.121-.452-.168-.872h.75v-1.339h-.774c.141-.213.161-.244.207-.335v-.425h-1.162c.037-.069.055-.102.102-.202l-.359-.117c-.372.717-.836.914-1 .983l.14.468c.084-.048.104-.064.151-.096v1.063h1.107c-.398.298-.836.43-1.268.548l.114.435c.187-.053.552-.159.984-.425.047.064.074.107.098.149-.387.324-.809.505-1.24.59zm1.266-2.189h-.84v-.494h.84z" fill="#231f20" transform="matrix(4.16667 0 0 4.16667 -1760.07 -2065.53159903)"/></g></svg>