<svg clip-rule="evenodd" fill-rule="evenodd" stroke-linejoin="round" stroke-miterlimit="2" viewBox="0 0 169 254" xmlns="http://www.w3.org/2000/svg"><g fill-rule="nonzero"><path d="m.0003783.00421273h168.9584685v253.44603609h-168.9584685z" fill="#fff" stroke-width="4.16667"/><path d="m2.45454693 2.72504824h164.05013124v248.01686508h-164.05013124z" fill="#231f20" stroke-width="4.16667"/><path d="m10.7087202 11.54588863h146.36261709v41.1250329h-146.36261709z" fill="#fff" stroke-width="4.16667"/><path d="m10.64205348 61.6334287h146.44595049v151.18762095h-146.44595049z" fill="#fff" stroke-width="4.16667"/><g transform="matrix(4.16667 0 0 4.16667 -889.542 -2140.91)"><path d="m216.051 571.85v-4.818h7.056v1.128h-4.221v.689h3.573v1.123h-3.573v.755h4.385v1.123z" fill="#fff"/><path d="m229.266 568.436c-.044-.162-.202-.268-.409-.326-.202-.062-.451-.09-.732-.09-.624 0-.902.102-.902.282 0 .712 4.975.265 4.975 2.017 0 1.116-1.672 1.661-4.049 1.661-2.284 0-3.772-.743-3.832-1.613h2.714c.061.174.229.298.47.38.228.079.526.121.807.121.709 0 1.18-.125 1.18-.353 0-.73-4.98-.229-4.98-2.066 0-1.023 1.587-1.536 3.751-1.536 2.401 0 3.496.68 3.703 1.523z" fill="#fff"/><path d="m236.443 570.172v1.678h-2.835v-4.818h4.086c2.88 0 3.831.442 3.831 1.378 0 .556-.443 1.019-1.453 1.181.912.184 1.466.297 1.466 1.269 0 .627-.037.845.3.845v.145h-2.874c-.071-.107-.142-.415-.142-.842 0-.633-.193-.836-1.514-.836zm0-1.05h1.115c.877 0 1.348-.128 1.348-.459 0-.339-.48-.503-1.142-.503h-1.321z" fill="#fff"/><path d="m243.267 571.85v-4.818h4.136c1.948 0 3.497.262 3.497 1.216 0 .497-.579.858-1.129 1.046.936.135 1.438.586 1.438 1.103 0 1.074-1.474 1.453-3.725 1.453zm2.833-2.011v.888h1.238c.702 0 1.229-.082 1.229-.441 0-.422-.658-.447-1.564-.447zm0-1.679v.806h1.182c.565 0 .975-.145.975-.421 0-.377-.559-.385-1.155-.385z" fill="#fff"/><path d="m217.318 537.595 10.779-2.904 6.147 14.475.051-.018-1.855-15.62 10.779-2.901 6.724 25.277-6.568 1.76-4.809-18.069-.052.02 2.036 18.808-7.109 1.918-7.578-17.32-.054.014 4.8 18.07-6.565 1.764z" fill="#231f20"/><path d="m217.035 524.308v-5.591h1.587l.739 3.802h.013l.783-3.802h1.535v5.591h-.96v-4.313h-.013l-.908 4.313h-.94l-.863-4.313h-.012v4.313z" fill="#231f20"/><path d="m224.038 519.795h-.015l-.45 2.414h.941zm-1.901 4.513 1.306-5.591h1.3l1.28 5.591h-1.039l-.261-1.24h-1.346l-.267 1.24z" fill="#231f20"/><path d="m228.902 518.717v.93h-1.097v4.661h-.987v-4.661h-1.096v-.93z" fill="#231f20"/><path d="m232.547 518.717v3.964c0 .211-.027.421-.082.624-.056.203-.143.385-.267.549-.124.162-.289.295-.493.395-.205.1-.459.15-.758.15-.543 0-.948-.154-1.212-.464-.263-.307-.395-.728-.395-1.254v-3.964h.986v3.887c0 .347.056.592.167.74.11.146.258.22.441.22.217 0 .377-.082.476-.246.101-.167.151-.404.151-.714v-3.887z" fill="#231f20"/><path d="m234.316 521.133h.439c.095 0 .176-.025.242-.077.064-.052.116-.118.155-.198.042-.079.069-.169.084-.267.014-.098.022-.191.022-.278 0-.268-.044-.458-.134-.57-.09-.11-.213-.166-.369-.166h-.439zm0 3.175h-.986v-5.591h1.822c.34 0 .608.127.808.373.197.247.297.611.297 1.09 0 .357-.067.659-.2.906-.133.248-.357.404-.675.465v.017c.052.009.126.026.223.045.095.02.189.067.283.14.093.071.175.178.245.321.07.142.104.339.104.591 0 .088.001.213.004.372.002.161.007.326.016.496.009.169.02.327.036.471.015.145.033.245.055.304h-.966c-.066-.17-.1-.349-.102-.536-.003-.185-.004-.368-.004-.549 0-.165-.001-.323-.003-.472-.001-.149-.023-.279-.063-.391-.041-.111-.112-.2-.21-.266-.098-.068-.241-.103-.427-.103h-.257z" fill="#231f20"/><path d="m236.982 524.308v-5.591h2.572v.86h-1.585v1.379h1.462v.858h-1.462v1.633h1.637v.861z" fill="#231f20"/><path d="m241.607 519.558c.165-.114.323-.239.477-.38.152-.139.285-.302.403-.49h.875v5.62h-.987v-4.325c-.115.125-.239.237-.37.34-.131.1-.263.198-.398.289z" fill="#231f20"/><path d="m246.838 519.759-1.112 4.549h-1.025l1.249-4.75h-1.563v-.87h2.451z" fill="#231f20"/><path d="m248.359 519.802h.726v1.525h1.103v.859h-1.103v1.524h-.726v-1.524h-1.111v-.859h1.111z" fill="#231f20"/></g></g></svg>