<?xml version="1.0" encoding="UTF-8"?>
<svg width="25px" height="22px" viewBox="0 0 25 22" version="1.1" xmlns="http://www.w3.org/2000/svg" xmlns:xlink="http://www.w3.org/1999/xlink">
    <!-- Generator: Sketch 53.2 (72643) - https://sketchapp.com -->
    <title>Group 9</title>
    <desc>Created with Sketch.</desc>
    <g id="Homepage" stroke="none" stroke-width="1" fill="none" fill-rule="evenodd" stroke-linecap="round" stroke-linejoin="round">
        <g id="Homepage---Light-Header-" transform="translate(-1366.000000, -63.000000)" stroke="#323232" stroke-width="1.4">
            <g id="Mini-Header-2">
                <g id="Group-9" transform="translate(1367.000000, 64.000000)">
                    <path d="M3.97058298,3.72443404 L22.2374766,3.72443404 C22.5663277,3.72443404 22.8012213,4.04251915 22.7053064,4.35668936 L20.1606255,12.6758383 C20.0979872,12.8818596 19.9081149,13.0223064 19.6927957,13.0223064 L6.81475319,13.0223064 L3.97058298,3.72443404 Z" id="Stroke-1"></path>
                    <polyline id="Stroke-3" points="0 -4.89361702e-05 2.967 -4.89361702e-05 7.83761702 16.6382489 18.106383 16.6382489"></polyline>
                    <path d="M10.4414617,18.3476872 C10.4414617,19.3973681 9.59095106,20.2478787 8.54175957,20.2478787 C7.49207872,20.2478787 6.64156809,19.3973681 6.64156809,18.3476872 C6.64156809,17.2980064 7.49207872,16.4479851 8.54175957,16.4479851 C9.59095106,16.4479851 10.4414617,17.2980064 10.4414617,18.3476872 Z" id="Stroke-5"></path>
                    <path d="M20.0528191,18.3476872 C20.0528191,19.3973681 19.2023085,20.2478787 18.153117,20.2478787 C17.1034362,20.2478787 16.2529255,19.3973681 16.2529255,18.3476872 C16.2529255,17.2980064 17.1034362,16.4479851 18.153117,16.4479851 C19.2023085,16.4479851 20.0528191,17.2980064 20.0528191,18.3476872 Z" id="Stroke-7"></path>
                </g>
            </g>
        </g>
    </g>
</svg>