<svg clip-rule="evenodd" fill-rule="evenodd" stroke-linejoin="round" stroke-miterlimit="2" viewBox="0 0 169 254" xmlns="http://www.w3.org/2000/svg"><g fill-rule="nonzero"><path d="m.00035761-.00162068h168.9584685v253.44186942h-168.9584685z" fill="#fff" stroke-width="4.16667"/><path d="m2.45452624 2.71921483h164.05013124v248.01269841h-164.05013124z" fill="#231f20" stroke-width="4.16667"/><path d="m10.70869951 11.53172188h146.35845042v41.12086623h-146.35845042z" fill="#fff" stroke-width="4.16667"/><path d="m10.64203279 61.62759529h146.44178382v151.18345428h-146.44178382z" fill="#fff" stroke-width="4.16667"/><g transform="matrix(4.16667 0 0 4.16667 -655.346 -2140.82)"><path d="m159.844 571.824v-4.817h7.056v1.127h-4.221v.689h3.572v1.123h-3.572v.755h4.385v1.123z" fill="#fff"/><path d="m173.059 568.41c-.045-.162-.203-.268-.409-.326-.201-.061-.452-.089-.732-.089-.624 0-.903.101-.903.281 0 .713 4.976.266 4.976 2.018 0 1.115-1.673 1.66-4.049 1.66-2.284 0-3.772-.742-3.833-1.612h2.715c.061.173.229.297.47.379.228.08.525.122.806.122.709 0 1.18-.126 1.18-.354 0-.73-4.979-.229-4.979-2.065 0-1.024 1.587-1.537 3.751-1.537 2.401 0 3.496.681 3.703 1.523z" fill="#fff"/><path d="m180.236 570.146v1.678h-2.835v-4.817h4.086c2.88 0 3.831.441 3.831 1.377 0 .557-.443 1.02-1.453 1.181.912.184 1.466.298 1.466 1.27 0 .626-.037.844.299.844v.145h-2.874c-.071-.107-.142-.415-.142-.842 0-.632-.192-.836-1.513-.836zm0-1.05h1.114c.877 0 1.348-.127 1.348-.459 0-.339-.48-.503-1.141-.503h-1.321z" fill="#fff"/><path d="m187.06 571.824v-4.817h4.135c1.948 0 3.498.261 3.498 1.215 0 .497-.579.858-1.13 1.046.936.136 1.438.587 1.438 1.104 0 1.073-1.474 1.452-3.725 1.452zm2.833-2.011v.888h1.237c.703 0 1.23-.082 1.23-.441 0-.421-.659-.447-1.565-.447zm0-1.679v.807h1.181c.565 0 .975-.146.975-.421 0-.378-.558-.386-1.154-.386z" fill="#fff"/><path d="m162.77 537.392 27.19-6.782 2.091 7.247-8.736 2.177 5.859 20.361-9.722 2.425-5.862-20.361-8.732 2.179z" fill="#231f20"/><path d="m186.731 518.702h2.309l2.678 3.049-.093-1.274v-1.775h2.361v5.585h-2.306l-2.683-3.042.045 1.318.05 1.724h-2.361z" fill="#231f20"/><path d="m178.413 518.702h6.123v1.297h-3.663v.804h3.1v1.304h-3.1v.875h3.809v1.305h-6.269z" fill="#231f20"/><path d="m169.806 518.702h6.125v1.297h-3.663v.804h3.097v1.304h-3.097v.875h3.811v1.305h-6.273z" fill="#231f20"/><path d="m160.828 518.702h6.887v1.465h-2.209v4.12h-2.467v-4.12h-2.211z" fill="#231f20"/></g></g></svg>